<svg width="153" height="155" viewBox="0 0 153 155" fill="none" xmlns="http://www.w3.org/2000/svg">
<path d="M18.4385 124.758C18.3955 125.08 18.3669 125.41 18.3525 125.746C18.3382 126.076 18.3311 126.419 18.3311 126.777C18.3311 127.415 18.3633 128.066 18.4277 128.732C18.4922 129.391 18.5889 130.05 18.7178 130.709C18.8467 131.368 19.0078 132.016 19.2012 132.653C19.3945 133.284 19.6165 133.885 19.8672 134.458C20.125 135.031 20.4115 135.564 20.7266 136.059C21.0488 136.553 21.4033 136.99 21.79 137.369C22.2126 136.932 22.5527 136.431 22.8105 135.865C23.0755 135.292 23.2796 134.698 23.4229 134.082C23.5732 133.459 23.6735 132.832 23.7236 132.202C23.7738 131.572 23.8024 130.974 23.8096 130.408H26.1729C26.1729 130.974 26.1979 131.568 26.248 132.191C26.2982 132.814 26.3949 133.434 26.5381 134.05C26.6813 134.659 26.8818 135.249 27.1396 135.822C27.3975 136.388 27.734 136.896 28.1494 137.348C28.751 136.696 29.2702 135.958 29.707 135.135C30.1439 134.304 30.5055 133.434 30.792 132.524C31.0785 131.615 31.2897 130.684 31.4258 129.731C31.5618 128.779 31.6299 127.844 31.6299 126.928C31.6299 126.161 31.5869 125.424 31.501 124.715C32.1312 124.743 32.6934 124.786 33.1875 124.844C33.6888 124.901 34.1221 124.958 34.4873 125.016C34.9027 125.087 35.2751 125.159 35.6045 125.23V127.938C35.3682 127.859 35.1354 127.798 34.9062 127.755C34.6842 127.705 34.4658 127.651 34.251 127.594C34.251 129.133 34.1006 130.562 33.7998 131.88C33.5062 133.19 33.0944 134.415 32.5645 135.554C32.0345 136.692 31.4007 137.749 30.6631 138.723C29.9255 139.697 29.1162 140.606 28.2354 141.451C27.6051 140.842 27.0179 140.162 26.4736 139.41C25.9365 138.658 25.4424 137.806 24.9912 136.854C24.5257 137.806 24.0173 138.662 23.4658 139.421C22.9215 140.18 22.3343 140.864 21.7041 141.473C20.8304 140.628 20.0319 139.718 19.3086 138.744C18.5853 137.77 17.9658 136.714 17.4502 135.575C16.9346 134.437 16.5335 133.212 16.2471 131.901C15.9606 130.584 15.8174 129.155 15.8174 127.615C15.5596 127.673 15.3089 127.726 15.0654 127.776C14.8291 127.819 14.5928 127.88 14.3564 127.959V125.23C14.3564 125.238 14.4495 125.223 14.6357 125.188C14.8291 125.152 15.1012 125.109 15.4521 125.059C15.8102 125.001 16.2399 124.948 16.7412 124.897C17.2425 124.84 17.8083 124.794 18.4385 124.758ZM50.2783 136.617C50.0993 136.46 49.8773 136.306 49.6123 136.155C49.3473 136.005 49.0215 135.872 48.6348 135.758C48.248 135.636 47.7861 135.539 47.249 135.468C46.7191 135.389 46.096 135.35 45.3799 135.35C44.7425 135.35 44.1374 135.364 43.5645 135.393C42.9987 135.414 42.501 135.486 42.0713 135.607C41.6416 135.722 41.3014 135.908 41.0508 136.166C40.8001 136.424 40.6748 136.782 40.6748 137.24V138.615C41.305 138.715 41.9997 138.798 42.7588 138.862C43.5179 138.927 44.363 138.959 45.2939 138.959C46.0387 138.959 46.8301 138.934 47.668 138.884C48.513 138.826 49.3831 138.715 50.2783 138.551V136.617ZM45.4443 128.754C45.8024 128.754 46.2357 128.772 46.7441 128.808C47.2526 128.843 47.7826 128.908 48.334 129.001C48.8854 129.087 49.4297 129.209 49.9668 129.366C50.5111 129.517 50.998 129.717 51.4277 129.968C51.8646 130.211 52.2155 130.505 52.4805 130.849C52.7454 131.192 52.8779 131.597 52.8779 132.062V140.377C52.2764 140.499 51.596 140.603 50.8369 140.688C50.1852 140.767 49.4082 140.839 48.5059 140.903C47.6035 140.968 46.5973 141 45.4873 141C44.3844 141 43.21 140.953 41.9639 140.86C40.7249 140.767 39.4287 140.606 38.0752 140.377V136.51C38.0752 136.094 38.1719 135.733 38.3652 135.425C38.5658 135.11 38.8379 134.841 39.1816 134.619C39.5254 134.397 39.93 134.215 40.3955 134.071C40.861 133.928 41.3623 133.813 41.8994 133.728C42.4365 133.642 42.9951 133.584 43.5752 133.556C44.1553 133.52 44.7354 133.502 45.3154 133.502C46.1963 133.502 46.9447 133.559 47.5605 133.674C48.1836 133.781 48.6992 133.899 49.1074 134.028C49.5801 134.186 49.9704 134.361 50.2783 134.555V132.814C50.2783 132.521 50.2067 132.27 50.0635 132.062C49.9202 131.848 49.7269 131.669 49.4834 131.525C49.2399 131.375 48.9606 131.257 48.6455 131.171C48.3304 131.078 48.001 131.006 47.6572 130.956C47.3135 130.906 46.9626 130.874 46.6045 130.859C46.2536 130.845 45.9242 130.838 45.6162 130.838C45.2939 130.838 44.9502 130.849 44.585 130.87C44.2197 130.884 43.8545 130.917 43.4893 130.967C43.1312 131.017 42.7839 131.089 42.4473 131.182C42.1178 131.268 41.8242 131.386 41.5664 131.536C41.3086 131.687 41.1009 131.869 40.9434 132.084C40.793 132.292 40.7178 132.542 40.7178 132.836L38.0537 132.148C38.0537 131.669 38.1719 131.253 38.4082 130.902C38.6445 130.544 38.9561 130.24 39.3428 129.989C39.7367 129.739 40.1878 129.535 40.6963 129.377C41.2048 129.212 41.7311 129.087 42.2754 129.001C42.8268 128.908 43.3747 128.843 43.9189 128.808C44.4632 128.772 44.9717 128.754 45.4443 128.754ZM56.6162 132.127C56.5876 131.898 56.5195 131.704 56.4121 131.547C56.3118 131.389 56.2008 131.26 56.0791 131.16C55.943 131.038 55.7926 130.938 55.6279 130.859L56.8311 128.754C57.096 128.847 57.361 128.972 57.626 129.13C57.848 129.266 58.0807 129.441 58.3242 129.656C58.5749 129.864 58.7933 130.122 58.9795 130.43C59.3376 130.201 59.7028 129.986 60.0752 129.785C60.4548 129.577 60.8486 129.398 61.2568 129.248C61.6722 129.098 62.1055 128.979 62.5566 128.894C63.015 128.8 63.5055 128.754 64.0283 128.754C65.1312 128.754 66.0765 128.847 66.8643 129.033C67.6592 129.212 68.3073 129.484 68.8086 129.85C69.3171 130.208 69.6895 130.655 69.9258 131.192C70.1621 131.729 70.2803 132.356 70.2803 133.072V141H67.4658V133.738C67.4658 133.337 67.4121 132.993 67.3047 132.707C67.1973 132.413 67.0505 132.166 66.8643 131.966C66.6852 131.758 66.474 131.59 66.2305 131.461C65.987 131.332 65.7327 131.235 65.4678 131.171C65.21 131.099 64.945 131.053 64.6729 131.031C64.4007 131.003 64.1429 130.988 63.8994 130.988C63.4411 130.988 63.0042 131.021 62.5889 131.085C62.1735 131.149 61.7796 131.239 61.4072 131.354C61.0348 131.461 60.6839 131.59 60.3545 131.74C60.0251 131.891 59.7171 132.048 59.4307 132.213V141H56.6162V132.127ZM86.458 124.758C86.415 125.08 86.3864 125.41 86.3721 125.746C86.3577 126.076 86.3506 126.419 86.3506 126.777C86.3506 127.415 86.3828 128.066 86.4473 128.732C86.5117 129.391 86.6084 130.05 86.7373 130.709C86.8662 131.368 87.0273 132.016 87.2207 132.653C87.4141 133.284 87.6361 133.885 87.8867 134.458C88.1445 135.031 88.431 135.564 88.7461 136.059C89.0684 136.553 89.4229 136.99 89.8096 137.369C90.2321 136.932 90.5723 136.431 90.8301 135.865C91.0951 135.292 91.2992 134.698 91.4424 134.082C91.5928 133.459 91.693 132.832 91.7432 132.202C91.7933 131.572 91.8219 130.974 91.8291 130.408H94.1924C94.1924 130.974 94.2174 131.568 94.2676 132.191C94.3177 132.814 94.4144 133.434 94.5576 134.05C94.7008 134.659 94.9014 135.249 95.1592 135.822C95.417 136.388 95.7536 136.896 96.1689 137.348C96.7705 136.696 97.2897 135.958 97.7266 135.135C98.1634 134.304 98.5251 133.434 98.8115 132.524C99.098 131.615 99.3092 130.684 99.4453 129.731C99.5814 128.779 99.6494 127.844 99.6494 126.928C99.6494 126.161 99.6064 125.424 99.5205 124.715C100.151 124.743 100.713 124.786 101.207 124.844C101.708 124.901 102.142 124.958 102.507 125.016C102.922 125.087 103.295 125.159 103.624 125.23V127.938C103.388 127.859 103.155 127.798 102.926 127.755C102.704 127.705 102.485 127.651 102.271 127.594C102.271 129.133 102.12 130.562 101.819 131.88C101.526 133.19 101.114 134.415 100.584 135.554C100.054 136.692 99.4202 137.749 98.6826 138.723C97.945 139.697 97.1357 140.606 96.2549 141.451C95.6247 140.842 95.0374 140.162 94.4932 139.41C93.9561 138.658 93.4619 137.806 93.0107 136.854C92.5452 137.806 92.0368 138.662 91.4854 139.421C90.9411 140.18 90.3538 140.864 89.7236 141.473C88.8499 140.628 88.0514 139.718 87.3281 138.744C86.6048 137.77 85.9854 136.714 85.4697 135.575C84.9541 134.437 84.5531 133.212 84.2666 131.901C83.9801 130.584 83.8369 129.155 83.8369 127.615C83.5791 127.673 83.3285 127.726 83.085 127.776C82.8486 127.819 82.6123 127.88 82.376 127.959V125.23C82.376 125.238 82.4691 125.223 82.6553 125.188C82.8486 125.152 83.1208 125.109 83.4717 125.059C83.8298 125.001 84.2594 124.948 84.7607 124.897C85.262 124.84 85.8278 124.794 86.458 124.758ZM118.298 136.617C118.119 136.46 117.897 136.306 117.632 136.155C117.367 136.005 117.041 135.872 116.654 135.758C116.268 135.636 115.806 135.539 115.269 135.468C114.739 135.389 114.116 135.35 113.399 135.35C112.762 135.35 112.157 135.364 111.584 135.393C111.018 135.414 110.521 135.486 110.091 135.607C109.661 135.722 109.321 135.908 109.07 136.166C108.82 136.424 108.694 136.782 108.694 137.24V138.615C109.325 138.715 110.019 138.798 110.778 138.862C111.537 138.927 112.382 138.959 113.313 138.959C114.058 138.959 114.85 138.934 115.688 138.884C116.533 138.826 117.403 138.715 118.298 138.551V136.617ZM113.464 128.754C113.822 128.754 114.255 128.772 114.764 128.808C115.272 128.843 115.802 128.908 116.354 129.001C116.905 129.087 117.449 129.209 117.986 129.366C118.531 129.517 119.018 129.717 119.447 129.968C119.884 130.211 120.235 130.505 120.5 130.849C120.765 131.192 120.897 131.597 120.897 132.062V140.377C120.296 140.499 119.616 140.603 118.856 140.688C118.205 140.767 117.428 140.839 116.525 140.903C115.623 140.968 114.617 141 113.507 141C112.404 141 111.229 140.953 109.983 140.86C108.744 140.767 107.448 140.606 106.095 140.377V136.51C106.095 136.094 106.191 135.733 106.385 135.425C106.585 135.11 106.857 134.841 107.201 134.619C107.545 134.397 107.95 134.215 108.415 134.071C108.881 133.928 109.382 133.813 109.919 133.728C110.456 133.642 111.015 133.584 111.595 133.556C112.175 133.52 112.755 133.502 113.335 133.502C114.216 133.502 114.964 133.559 115.58 133.674C116.203 133.781 116.719 133.899 117.127 134.028C117.6 134.186 117.99 134.361 118.298 134.555V132.814C118.298 132.521 118.226 132.27 118.083 132.062C117.94 131.848 117.746 131.669 117.503 131.525C117.259 131.375 116.98 131.257 116.665 131.171C116.35 131.078 116.021 131.006 115.677 130.956C115.333 130.906 114.982 130.874 114.624 130.859C114.273 130.845 113.944 130.838 113.636 130.838C113.313 130.838 112.97 130.849 112.604 130.87C112.239 130.884 111.874 130.917 111.509 130.967C111.151 131.017 110.803 131.089 110.467 131.182C110.137 131.268 109.844 131.386 109.586 131.536C109.328 131.687 109.12 131.869 108.963 132.084C108.812 132.292 108.737 132.542 108.737 132.836L106.073 132.148C106.073 131.669 106.191 131.253 106.428 130.902C106.664 130.544 106.976 130.24 107.362 129.989C107.756 129.739 108.207 129.535 108.716 129.377C109.224 129.212 109.751 129.087 110.295 129.001C110.846 128.908 111.394 128.843 111.938 128.808C112.483 128.772 112.991 128.754 113.464 128.754ZM126.763 136.016C126.763 136.417 126.816 136.764 126.924 137.058C127.031 137.344 127.178 137.591 127.364 137.799C127.55 137.999 127.762 138.164 127.998 138.293C128.242 138.422 128.496 138.522 128.761 138.594C129.026 138.658 129.294 138.705 129.566 138.733C129.839 138.755 130.1 138.766 130.351 138.766C131.26 138.766 132.087 138.647 132.832 138.411C133.577 138.175 134.239 137.885 134.819 137.541V128.754L137.591 128.969V141.537C137.591 142.046 137.483 142.518 137.269 142.955C137.054 143.392 136.742 143.768 136.334 144.083C135.926 144.405 135.424 144.656 134.83 144.835C134.236 145.014 133.559 145.104 132.8 145.104V143.234C133.086 143.234 133.351 143.206 133.595 143.148C133.838 143.091 134.049 143.002 134.229 142.88C134.415 142.765 134.558 142.618 134.658 142.439C134.766 142.268 134.819 142.067 134.819 141.838V139.582C134.483 139.79 134.139 139.979 133.788 140.151C133.444 140.323 133.083 140.474 132.703 140.603C132.324 140.724 131.926 140.821 131.511 140.893C131.095 140.964 130.659 141 130.2 141C129.09 141 128.141 140.91 127.354 140.731C126.566 140.545 125.918 140.273 125.409 139.915C124.908 139.55 124.539 139.099 124.303 138.562C124.066 138.024 123.948 137.398 123.948 136.682V128.969L126.763 128.754V136.016Z" fill="#118AB2"/>
<path fill-rule="evenodd" clip-rule="evenodd" d="M60.6176 92.3401C60.6176 92.3401 66.5986 85.7361 76.5666 85.7361C86.5346 85.7361 93.2756 92.3401 93.2756 92.3401L76.9466 110.199L60.6176 92.3401ZM51.4912 83.5287C51.4912 83.5287 62.0122 72.9877 76.9462 72.8897C91.8802 72.7907 102.716 83.5287 102.716 83.5287L112.173 72.8887C112.173 72.8887 96.9832 58.8027 76.9462 58.9007C56.9092 58.9997 41.6402 73.4807 41.6402 73.4807L51.4912 83.5287ZM33.5623 63.7282C33.5623 63.7282 53.1463 46.3902 76.9463 46.3902C100.746 46.3902 120.448 63.7282 120.448 63.7282L129.905 53.3842C129.905 53.3842 106.558 32.4022 76.9073 32.5002C47.2553 32.5992 24.6963 53.6802 24.6963 53.6802L33.5623 63.7282Z" fill="url(#paint0_linear_26_354)"/>
<defs>
<linearGradient id="paint0_linear_26_354" x1="24.6963" y1="32.4999" x2="24.6963" y2="110.199" gradientUnits="userSpaceOnUse">
<stop stop-color="#19DEFE"/>
<stop offset="1" stop-color="#1E5BEF"/>
</linearGradient>
</defs>
</svg>
